<svg id="svg" version="1.1" xmlns="http://www.w3.org/2000/svg" xmlns:xlink="http://www.w3.org/1999/xlink" width="400" height="400" viewBox="0, 0, 400,400"><g id="svgg"><path id="path0" d="M215.390 131.099 C 215.298 131.191,213.808 131.487,212.079 131.759 C 210.349 132.030,207.733 132.485,206.267 132.768 C 204.800 133.052,202.280 133.533,200.667 133.838 C 199.053 134.142,196.833 134.581,195.733 134.812 C 193.522 135.277,189.870 135.994,185.600 136.801 C 184.060 137.093,181.600 137.571,180.133 137.863 C 178.667 138.156,176.207 138.645,174.667 138.950 C 173.127 139.255,170.727 139.734,169.333 140.014 C 167.940 140.295,165.660 140.753,164.267 141.033 C 154.243 143.042,150.788 143.909,149.160 144.822 C 145.581 146.827,143.848 149.535,142.262 155.600 C 141.878 157.067,140.981 160.487,140.269 163.200 C 139.557 165.913,137.820 172.633,136.409 178.133 C 134.997 183.633,133.770 188.313,133.682 188.533 C 133.482 189.030,131.296 197.457,129.705 203.867 C 129.049 206.507,128.405 208.907,128.273 209.200 C 127.323 211.312,124.987 222.220,124.862 225.125 C 124.548 232.414,126.132 235.190,135.171 243.200 C 136.247 244.153,137.586 245.353,138.147 245.867 C 138.708 246.380,139.973 247.520,140.958 248.400 C 141.943 249.280,142.940 250.184,143.174 250.410 C 143.408 250.635,144.800 251.895,146.267 253.210 C 147.733 254.524,148.993 255.664,149.067 255.742 C 149.140 255.820,150.940 257.439,153.067 259.340 C 155.193 261.240,156.993 262.859,157.067 262.937 C 157.140 263.015,158.460 264.207,160.000 265.587 C 161.540 266.967,163.820 269.019,165.067 270.149 C 172.571 276.948,177.977 278.828,186.533 277.616 C 187.707 277.450,190.407 277.082,192.533 276.799 C 197.056 276.197,202.366 275.445,207.600 274.666 C 209.653 274.360,212.893 273.884,214.800 273.607 C 220.481 272.783,225.853 271.984,228.267 271.605 C 233.658 270.759,237.646 270.133,240.133 269.744 C 241.600 269.515,243.100 269.213,243.467 269.074 C 243.833 268.935,244.613 268.743,245.200 268.646 C 247.646 268.243,251.126 266.369,253.084 264.401 C 255.399 262.076,256.557 259.658,257.892 254.370 C 258.498 251.967,259.593 247.660,260.324 244.800 C 261.055 241.940,262.249 237.260,262.977 234.400 C 263.705 231.540,264.838 227.100,265.495 224.533 C 266.152 221.967,267.272 217.527,267.985 214.667 C 268.698 211.807,270.138 206.107,271.186 202.000 C 274.602 188.603,274.860 186.831,273.971 182.853 C 273.070 178.817,273.567 179.351,240.370 146.763 C 226.360 133.009,226.271 132.937,221.417 131.492 C 219.627 130.958,215.781 130.708,215.390 131.099 M225.947 149.083 C 239.173 151.778,247.383 162.072,248.558 177.431 C 249.008 183.307,248.729 203.725,248.149 207.467 C 245.170 226.665,232.175 242.167,213.953 248.259 C 206.192 250.854,205.062 250.933,175.705 250.933 L 151.200 250.933 151.200 239.200 L 151.200 227.467 175.400 227.461 C 190.068 227.458,200.335 227.351,201.467 227.190 C 212.721 225.583,221.490 217.643,224.335 206.482 C 224.915 204.204,224.933 203.738,224.933 190.927 L 224.933 177.720 224.263 176.417 C 223.449 174.835,221.745 173.586,219.242 172.737 L 217.467 172.135 196.067 172.059 L 174.667 171.982 174.667 191.724 L 174.667 211.467 162.933 211.467 L 151.200 211.467 151.200 180.000 L 151.200 148.533 187.225 148.533 C 222.555 148.533,223.302 148.544,225.947 149.083 " stroke="none" fill="#fc3604" fill-rule="evenodd"></path><path id="path1" d="M151.467 179.856 L 151.467 211.200 163.067 211.200 L 174.667 211.200 174.667 191.600 L 174.667 172.000 195.811 172.000 C 220.315 172.000,219.947 171.963,223.104 174.735 C 225.178 176.556,225.190 176.631,225.283 188.900 C 225.371 200.433,225.183 203.805,224.255 207.333 C 221.853 216.466,214.065 224.250,204.925 226.654 C 201.218 227.630,198.568 227.724,174.733 227.729 L 151.467 227.733 151.467 239.333 L 151.467 250.933 174.867 250.931 C 198.120 250.928,202.384 250.801,206.933 249.975 C 228.061 246.142,244.300 229.546,247.913 208.095 C 248.640 203.778,248.648 176.286,247.924 172.728 C 245.345 160.068,238.077 152.142,226.400 149.258 C 224.163 148.705,223.650 148.697,187.800 148.605 L 151.467 148.512 151.467 179.856 " stroke="none" fill="#fcfbfb" fill-rule="evenodd"></path><path id="path2" d="M95.998 174.200 C 95.996 188.524,95.882 200.883,95.735 202.542 C 94.057 221.499,75.596 232.666,57.015 225.963 C 47.341 222.474,40.753 213.400,39.859 202.333 L 39.670 200.000 27.833 200.000 L 15.995 200.000 16.124 201.400 C 16.194 202.170,16.322 203.937,16.407 205.326 C 17.722 226.799,34.939 246.091,56.611 250.376 C 86.189 256.224,113.127 238.599,118.729 209.733 C 119.284 206.869,119.300 206.113,119.392 177.800 L 119.487 148.800 107.743 148.800 L 96.000 148.800 95.998 174.200 M286.211 167.000 C 286.343 186.694,286.356 186.894,287.900 191.986 C 290.755 201.404,298.034 208.516,307.333 210.973 C 310.565 211.827,314.825 211.991,333.787 211.996 C 346.419 211.999,352.686 212.095,353.654 212.300 C 361.865 214.042,362.591 224.317,354.693 227.002 L 352.933 227.600 319.533 227.673 L 286.133 227.745 286.133 239.479 L 286.133 251.213 322.600 251.139 L 359.067 251.065 361.694 250.341 C 374.834 246.719,383.076 235.768,383.649 221.167 C 384.323 204.017,375.342 191.785,359.867 188.774 C 358.783 188.563,351.636 188.409,337.733 188.297 L 317.200 188.130 315.382 187.403 C 312.590 186.288,311.695 185.576,310.594 183.600 L 310.000 182.533 309.924 165.667 L 309.848 148.800 297.968 148.800 L 286.089 148.800 286.211 167.000 " stroke="none" fill="#040404" fill-rule="evenodd"></path><path id="path3" d="M151.332 179.933 L 151.333 211.333 162.933 211.338 L 174.533 211.342 163.001 211.268 L 151.469 211.194 151.399 179.864 L 151.330 148.533 151.332 179.933 M221.667 148.717 C 221.923 148.784,222.343 148.784,222.600 148.717 C 222.857 148.650,222.647 148.595,222.133 148.595 C 221.620 148.595,221.410 148.650,221.667 148.717 M225.189 190.267 C 225.189 196.427,225.224 198.909,225.266 195.782 C 225.309 192.656,225.309 187.616,225.266 184.582 C 225.224 181.549,225.189 184.107,225.189 190.267 M151.264 239.267 L 151.328 251.067 151.400 239.401 L 151.472 227.736 175.269 227.667 L 199.067 227.597 175.133 227.532 L 151.200 227.467 151.264 239.267 " stroke="none" fill="#fc9c86" fill-rule="evenodd"></path><path id="path4" d="M248.655 189.867 C 248.655 195.953,248.690 198.443,248.733 195.400 C 248.776 192.357,248.776 187.377,248.733 184.333 C 248.690 181.290,248.655 183.780,248.655 189.867 M233.987 235.800 L 232.933 236.933 234.067 235.879 C 235.121 234.899,235.323 234.667,235.121 234.667 C 235.077 234.667,234.567 235.177,233.987 235.800 " stroke="none" fill="#fc8c60" fill-rule="evenodd"></path></g></svg>